<svg xmlns="http://www.w3.org/2000/svg" width="2000" height="400" viewBox="0 0 2000 400"><path fill="#e6fbff" d="M-9-7h2028v171H-9z"/><path fill="#9bcf48" d="M-9 154h2028v171H-9z"/><ellipse cx="837.5" cy="305.5" fill="#d6ba73" rx="267.5" ry="137.5"/><path fill="#0084a6" d="M-59 303h2084v152H-59z"/><path d="M1183.4 88.8a77.3 77.3 0 1 0-66 131.1V280a9.7 9.7 0 0 0 9.7 9.7 9.6 9.6 0 0 0 9.7-9.7v-59.7a77.3 77.3 0 0 0 46.6-131.5zm-14.1 109.5a68.2 68.2 0 0 1-20.9 10.4 65.1 65.1 0 0 1-11.5 2.3v-62.9a9.7 9.7 0 0 0-9.7-9.7 9.6 9.6 0 0 0-9.7 9.7v62.5a67.9 67.9 0 1 1 51.8-12.3z"/><path d="M1125.9 209.1a6.5 6.5 0 0 1-4.5-1.9l-24.8-24.8a6.2 6.2 0 0 1 0-8.9 6.4 6.4 0 0 1 8.9 0l24.8 24.9a6.1 6.1 0 0 1 0 8.8 6.3 6.3 0 0 1-4.4 1.9zm34-44.5l-23.2 30.3v-21.7l12.7-16.6a6.6 6.6 0 0 1 9.2-1.3 6.8 6.8 0 0 1 1.3 9.3zm794.5-75.8a77.3 77.3 0 1 0-66 131.1V280a9.7 9.7 0 0 0 9.7 9.7 9.6 9.6 0 0 0 9.7-9.7v-59.7a77.3 77.3 0 0 0 46.6-131.5zm-14.1 109.5a68.2 68.2 0 0 1-20.9 10.4 65.1 65.1 0 0 1-11.5 2.3v-62.9a9.7 9.7 0 0 0-9.7-9.7 9.6 9.6 0 0 0-9.7 9.7v62.5a67.9 67.9 0 1 1 51.8-12.3z"/><path d="M1896.9 209.1a6.5 6.5 0 0 1-4.5-1.9l-24.8-24.8a6.2 6.2 0 0 1 0-8.9 6.4 6.4 0 0 1 8.9 0l24.8 24.9a6.1 6.1 0 0 1 0 8.8 6.3 6.3 0 0 1-4.4 1.9zm34-44.5l-23.2 30.3v-21.7l12.7-16.6a6.6 6.6 0 0 1 9.2-1.3 6.8 6.8 0 0 1 1.3 9.3zM394.4 88.8a77.3 77.3 0 1 0-66 131.1V280a9.7 9.7 0 0 0 9.7 9.7 9.6 9.6 0 0 0 9.7-9.7v-59.7a77.3 77.3 0 0 0 46.6-131.5zm-14.1 109.5a68.2 68.2 0 0 1-20.9 10.4 65.1 65.1 0 0 1-11.5 2.3v-62.9a9.7 9.7 0 0 0-9.7-9.7 9.6 9.6 0 0 0-9.7 9.7v62.5a67.9 67.9 0 1 1 51.8-12.3z"/><path d="M336.9 209.1a6.5 6.5 0 0 1-4.5-1.9l-24.8-24.8a6.2 6.2 0 0 1 0-8.9 6.4 6.4 0 0 1 8.9 0l24.8 24.9a6.1 6.1 0 0 1 0 8.8 6.3 6.3 0 0 1-4.4 1.9zm34-44.5l-23.2 30.3v-21.7l12.7-16.6a6.6 6.6 0 0 1 9.2-1.3 6.8 6.8 0 0 1 1.3 9.3z"/><path fill="#59823c" d="M1293.1 237.6a103.2 103.2 0 0 1-20.1-2.4 104.5 104.5 0 0 0-12-1c-13-.6-27.7-1.3-33.5-8.8-11.2-14.8-5.6-24.3-1.5-31.3 2-3.4 3.7-6.2 3.7-9.3s-.2-3.8-.4-5.9c-.6-7.3-1.3-16.4 4.1-22.4 3.3-3.5 8.4-5.4 15.1-5.4 1.7 0 3.5.2 5.5.4h1c2 0 2.5-.4 3.9-4.8s3.8-12.1 14.7-12.1h2.9l4.6.4c10.7.9 20.9 1.8 27.5 14.8 1.1 2.1 3.4 4.7 5.9 7.5 5 5.6 11.3 12.5 12.3 20.9s-3.5 15.4-6.9 19.5-3.8 4.9-3.3 6.9c2.6 11.4 1.8 19.6-2.6 25.1s-11 7.9-20.9 7.9zm-714.9-35.2c-9.7 0-21.1-1.3-34.8-4.1-4.8-1-12.6-1.3-20.8-1.7-22.5-1.1-48-2.4-58-15.4-19.5-25.5-9.7-42.1-2.6-54.2 3.4-5.8 6.3-10.8 6.3-16.1 0-3.1-.3-6.6-.5-10.2-1.1-12.7-2.4-28.5 7.1-38.7 5.7-6.2 14.5-9.4 26.1-9.4a80.4 80.4 0 0 1 9.4.6h1.9c3.4 0 4.2-.6 6.7-8.3S525.6 24 544.5 24a42.7 42.7 0 0 1 4.9.2l8 .8c18.7 1.5 36.3 3 47.7 25.6 1.9 3.5 5.9 8.1 10.3 12.9 8.7 9.7 19.5 21.7 21.3 36.3 2 16.7-6.1 26.6-12 33.8s-6.6 8.4-5.8 11.9c4.6 19.7 3.1 33.9-4.5 43.5s-18.9 13.4-36.2 13.4z"/><path fill="#7a7272" d="M762.6 248.5h-.6a.1.1 0 0 1-.1-.1h-.3v-.7l10.2-53.6v-.3l15.3-30.5 15.3-53.5c0-.1 0-.2.1-.2S817.8 83 844.2 83h.2a117.6 117.6 0 0 1 26 6.8c11.4 4.4 26.1 12.6 31 26.5a.9.9 0 0 1 0 .7c-1.7 4.4-3.5 9.2-5 13.9l-3 9.1 20.5-10.1h.9a1.1 1.1 0 0 1 .7.6l11.4 34.9a1.1 1.1 0 0 1 .1.5l-7.1 42.1 6.6 4h.1l.2.2v.2h.1v34.7a1.1 1.1 0 0 1-1.1 1.1z"/><circle cx="1129" cy="144" r="72" fill="#378242"/><circle cx="1903" cy="144" r="72" fill="#378242"/><circle cx="340" cy="144" r="72" fill="#378242"/><path fill="#59992f" d="M1755.3 133.3a9.7 9.7 0 0 1-4.9-12.2 30.8 30.8 0 0 0 2-10.8 29.1 29.1 0 0 0-29.4-28.9c.1.1-.5.1-1.1.1a9.7 9.7 0 0 1-9.8-7.4 29.2 29.2 0 0 0-56.7 0 9.7 9.7 0 0 1-9.8 7.4l-1.7-.2a31.3 31.3 0 0 0-10.1 2 29.2 29.2 0 0 0-16.6 37.8 9.8 9.8 0 0 1-4.9 12.3 29 29 0 0 0-16.7 26.3 29.4 29.4 0 0 0 29.4 29.4h117.6a29.4 29.4 0 0 0 12.7-55.8zm-1543-.1a9.7 9.7 0 0 1-4.9-12.2 31.3 31.3 0 0 0 2-10.8 29.3 29.3 0 0 0-29.4-29c.1.2-.5.2-1.1.2a9.7 9.7 0 0 1-9.8-7.4 29.2 29.2 0 0 0-56.7 0 9.7 9.7 0 0 1-9.8 7.4l-1.7-.2a31.3 31.3 0 0 0-10.1 2A29.2 29.2 0 0 0 74.2 121a9.7 9.7 0 0 1-4.9 12.2A29.3 29.3 0 0 0 82 189h117.6a29.4 29.4 0 0 0 12.7-55.8z"/><path fill="#632200" d="M1482.9 264l-3-80.9-6.6 3-.4-1 7.3-2.8-1.1-49.6h-92.7l-1 49.4 7.3 3.3-.5 1.2-6.6-3-2.2 80.4h-27.9l5.6-79.7-7.1 2.6-.5-1.4 7.9-3.1 3.7-49.7h-38.6v-18.5h-4.6V113h45l.9-17.2h-9V77.3h-8.8l-9.2-13.8h-14l-12.6-16.7-1.6-.3-8.5-1.4h-.3l-4.9-19.8h.5c4.6 1.1 62.1 10.3 136.6 10.3 46.1 0 90-3.4 130.6-10.2h1.1l-4.9 19.9h-.2l-8.7 1.4-1.6.3-12.7 16.7h-14l-9.2 13.8h-8.8v18.3h-9.6l1.7 17.2h44.8v1.2h-4.6v18.5h-38.5l3.2 49.2 7.9 3.2-.5 1.3-7.1-2.6 6 80.2zm-35.2-151h31V95.8h-9.2V77.3h-21.8zm-60.4 0h31.5V77.3h-22.3v18.5h-9.2z"/><path d="M1303.2 49.1l8.7 1.3 12.9 17.1h13.9l9.2 13.8h6.9v18.5h8.8l-.5 9.2h-45.2v9.2h4.6v18.5h38.3l-3.2 42.9-9.2 3.7 3.2 8.7 5.1-1.8-5.5 77.8h9.2l6-82 6.9-2.7 6.9 2.7-2.1 82h9.2l2.1-78.3 5.1 2.3 3.2-8.7-8.3-3.7.9-42.9h84.9l.9 42.9-8.3 3.2 3.2 8.8 5.1-2.3 3 78.7h9.3l-2.1-82 6.9-2.7 6.9 2.7 5.9 82h9.2l-5.9-78.3 5.1 1.9 3.2-8.8-9.2-3.7-2.8-42.4h38.3v-18.5h4.6V109h-45.2l-.9-9.2h9.2V81.3h6.9l9.3-13.8h13.8l12.9-17.1 8.8-1.3 2.7-.5 7-28.1-7 .9c-135.5 22.6-264.2.4-265.6 0l-6.9-1.4 6.9 28.1zm58.5 78.4h-29.9v-9.3h30.4zm173-9.3v9.3h-30l-.9-9.3zm-152.2-27.6l-2.3 85.3-6.9-2.8-6 2.3 6.4-84.8h-9.7v-9.3h27.7v9.3zm18 9.2V81.3h14.3V109h-23.5v-9.2zm74.7 27.7h-84.4l.5-9.3h83.9zM1424 109V81.3h18.4V109zm50.7-9.2v9.2h-23V81.3h13.8v18.5zm27.7-9.2h-9.7l6.5 84.8-6-2.3-7.4 2.8-1.8-85.3h-9.3v-9.3h27.7zm34.1-32.3h-13.8l-9.2 13.8h-161l-9.2-13.8h-13.8l-4.7-6a872.9 872.9 0 0 0 109.3 6.9 829.9 829.9 0 0 0 107-6.9zm24-26.8l-2.3 8.8-9.2 1.4a819.6 819.6 0 0 1-232 0 80.7 80.7 0 0 1-9.2-1.4l-2.3-8.8c28.1 4.2 138.3 18.5 255 0zm-377.1 57.3a77.3 77.3 0 1 0-66 131.1V280a9.7 9.7 0 0 0 9.7 9.7 9.6 9.6 0 0 0 9.7-9.7v-59.7a77.3 77.3 0 0 0 46.6-131.5zm-14.1 109.5a68.2 68.2 0 0 1-20.9 10.4 65.1 65.1 0 0 1-11.5 2.3v-62.9a9.7 9.7 0 0 0-9.7-9.7 9.6 9.6 0 0 0-9.7 9.7v62.5a67.9 67.9 0 1 1 51.8-12.3z"/><path d="M1125.9 209.1a6.5 6.5 0 0 1-4.5-1.9l-24.8-24.8a6.2 6.2 0 0 1 0-8.9 6.4 6.4 0 0 1 8.9 0l24.8 24.9a6.1 6.1 0 0 1 0 8.8 6.3 6.3 0 0 1-4.4 1.9zm34-44.5l-23.2 30.3v-21.7l12.7-16.6a6.6 6.6 0 0 1 9.2-1.3 6.8 6.8 0 0 1 1.3 9.3zm794.5-75.8a77.3 77.3 0 1 0-66 131.1V280a9.7 9.7 0 0 0 9.7 9.7 9.6 9.6 0 0 0 9.7-9.7v-59.7a77.3 77.3 0 0 0 46.6-131.5zm-14.1 109.5a68.2 68.2 0 0 1-20.9 10.4 65.1 65.1 0 0 1-11.5 2.3v-62.9a9.7 9.7 0 0 0-9.7-9.7 9.6 9.6 0 0 0-9.7 9.7v62.5a67.9 67.9 0 1 1 51.8-12.3z"/><path d="M1896.9 209.1a6.5 6.5 0 0 1-4.5-1.9l-24.8-24.8a6.2 6.2 0 0 1 0-8.9 6.4 6.4 0 0 1 8.9 0l24.8 24.9a6.1 6.1 0 0 1 0 8.8 6.3 6.3 0 0 1-4.4 1.9zm34-44.5l-23.2 30.3v-21.7l12.7-16.6a6.6 6.6 0 0 1 9.2-1.3 6.8 6.8 0 0 1 1.3 9.3zM394.4 88.8a77.3 77.3 0 1 0-66 131.1V280a9.7 9.7 0 0 0 9.7 9.7 9.6 9.6 0 0 0 9.7-9.7v-59.7a77.3 77.3 0 0 0 46.6-131.5zm-14.1 109.5a68.2 68.2 0 0 1-20.9 10.4 65.1 65.1 0 0 1-11.5 2.3v-62.9a9.7 9.7 0 0 0-9.7-9.7 9.6 9.6 0 0 0-9.7 9.7v62.5a67.9 67.9 0 1 1 51.8-12.3z"/><path d="M336.9 209.1a6.5 6.5 0 0 1-4.5-1.9l-24.8-24.8a6.2 6.2 0 0 1 0-8.9 6.4 6.4 0 0 1 8.9 0l24.8 24.9a6.1 6.1 0 0 1 0 8.8 6.3 6.3 0 0 1-4.4 1.9zm34-44.5l-23.2 30.3v-21.7l12.7-16.6a6.6 6.6 0 0 1 9.2-1.3 6.8 6.8 0 0 1 1.3 9.3zm923.6 76.9a112.9 112.9 0 0 1-21.6-2.6 115.5 115.5 0 0 0-12.9-1.1c-14-.6-29.8-1.4-36-9.5-12.1-15.8-6-26.1-1.6-33.6 2.1-3.6 3.9-6.7 3.9-10s-.2-4.1-.3-6.4c-.7-7.8-1.5-17.6 4.4-24 3.5-3.8 9-5.8 16.2-5.8a42.7 42.7 0 0 1 5.9.4h1.1c2.1 0 2.6-.3 4.1-5.1s4.2-13 15.9-13a16.2 16.2 0 0 1 3 .2l5 .4c11.6 1 22.5 1.9 29.6 15.9 1.2 2.2 3.7 5 6.4 8 5.4 6 12.1 13.5 13.2 22.5s-3.8 16.5-7.4 21-4.1 5.3-3.6 7.4c2.8 12.2 1.9 21.1-2.8 27s-11.8 8.3-22.5 8.3zm-47.9-84.6c-4.8 0-8.1 1.1-10 3.1-3.4 3.7-2.8 11.1-2.2 17.6.2 2.6.4 4.9.4 7.1 0 5.6-2.6 10-5.2 14.3-4.2 7.2-7.5 12.9 1.1 24.2 3.8 5 19.4 5.7 29.7 6.2 5.7.3 10.6.5 14.2 1.3 19.5 3.9 31.3 3 35.8-2.7 3-3.8 3.4-10.5 1.2-19.9-1.5-6.4 2.1-10.8 5.2-14.7s6.5-7.8 5.6-14.5-6.3-12.6-11.1-18c-3.1-3.4-6-6.6-7.6-9.8-5-9.8-11.7-10.4-22.8-11.3l-5.1-.5c-7-.7-8.2 1.3-10 7s-3.6 12.2-14.3 10.9z"/><path d="M1277.5 287.2h-8.4v-73.7l-13.9-21.9 7.2-4.5 11 17.5 11.9-17.6 7 4.7-14.8 21.9v73.6zm-697-78.7c-10.4 0-22.5-1.5-37.2-4.4-5.1-1-13.4-1.4-22.2-1.9-24.1-1.1-51.3-2.4-61.9-16.3-20.9-27.3-10.5-45-2.9-57.9 3.7-6.2 6.8-11.6 6.8-17.3 0-3.3-.3-7-.6-10.9-1.1-13.5-2.5-30.4 7.6-41.3 6.1-6.6 15.5-10 27.9-10a93.7 93.7 0 0 1 10.1.6h2c3.6 0 4.5-.6 7.1-8.8S524.3 18 544.4 18l5.3.3 8.5.8c20 1.6 38.8 3.2 51 27.3 2 3.8 6.3 8.7 10.9 13.8 9.3 10.3 20.9 23.2 22.8 38.8 2.2 17.8-6.5 28.4-12.8 36s-7 9.1-6.2 12.8c5 21 3.4 36.2-4.8 46.5s-20.2 14.2-38.6 14.2zM498 63c-8.2 0-14 1.8-17.2 5.3-5.8 6.3-4.8 19.1-3.9 30.3.4 4.3.7 8.5.7 12.1 0 9.7-4.4 17.3-8.8 24.6-7.3 12.4-13 22.2 1.9 41.8 6.5 8.5 33.3 9.8 51.1 10.6 9.7.5 18.2.9 24.4 2.2 33.5 6.7 53.8 5.2 61.6-4.6 5.1-6.5 5.8-18 2-34.2-2.6-11.1 3.6-18.6 9.1-25.3s11-13.4 9.6-25.1-10.8-21.5-19.2-30.8c-5.2-5.9-10.2-11.4-13-17-8.6-16.8-20.1-17.8-39.3-19.4l-8.8-.8c-12-1.3-14.1 2.2-17.2 12.1-2.6 8.1-6.1 20.9-24.6 18.7-3.1-.3-5.9-.5-8.4-.5z"/><path d="M551.2 287.2h-14.5V160.4l-23.8-37.7 12.2-7.8 19.1 30.1 20.4-30.3 12 8.1-25.4 37.7v126.7zm374.7-34.7h-40.8a5.1 5.1 0 0 1-5.1-4.4c-1.5-11.4-5.8-29.1-10.8-33.1l-4.4-3.1c-12.3-8.8-37.9-27-24.9-48.8 6.4-10.8 23.5-39.6 20.4-45a23.2 23.2 0 0 0-5.2-.6c-10.1 0-22.9 5.9-24.3 13.5-2.6 13.3-9.6 45.7-9.6 46-2.3 7.5-7.3 22.5-13.8 30.1a69.8 69.8 0 0 1 13.8 40.2 5.2 5.2 0 0 1-1.4 3.7 5.6 5.6 0 0 1-3.7 1.5h-53.5a4.9 4.9 0 0 1-3.9-1.9 4.9 4.9 0 0 1-1.1-4.2l10.2-53.5a7.4 7.4 0 0 1 .4-1.4l15.1-30.2 15.2-53.1a3.7 3.7 0 0 1 .5-1.1c.7-1.2 16.5-28.1 45.2-28.1h.7c2 .3 49.8 6.5 60.3 35.9a5 5 0 0 1-.1 3.6c-6.1 15.5-11.8 34.6-10.8 39.1 3.5 4.6 12.5 25 19.8 42.3l14.4 8.7a5 5 0 0 1 2.5 4.4v34.4a5.1 5.1 0 0 1-5.1 5.1zm-36.4-10.2h31.3v-26.5l-13.4-8a5.5 5.5 0 0 1-2.1-2.4c-7.7-18.2-16.9-38.7-18.9-41.3s-7.1-7.1 8.5-47.5c-9.4-21.1-47.2-26.9-51-27.4-20.7.2-33.7 19.2-35.8 22.5L793 164.6l-.3.9-15 30-8.9 46.8h41.9a58.6 58.6 0 0 0-14.1-32.1 5.3 5.3 0 0 1-1.4-4.6 5.1 5.1 0 0 1 3.1-3.7c2.9-1.4 9.1-14.5 13-27.4s6.9-32.3 9.4-45.4 19.9-21.8 34.4-21.8a25.7 25.7 0 0 1 8.7 1.3 10.1 10.1 0 0 1 6.2 6.1c3.7 10.2-7 29.5-21.4 53.7-7.5 12.6 7.5 24.8 22.2 35.2l4.7 3.4c8.3 6.6 12.4 25.8 14 35.3z"/><path d="M800.2 211.7a5.4 5.4 0 0 1-3.5-1.4c0-.1-5.2-4.8-11.8-4.8a5.1 5.1 0 0 1-5.1-5.1 5.1 5.1 0 0 1 5.1-5.1c10.7 0 18.5 7.3 18.9 7.6a5.1 5.1 0 0 1 .1 7.2 5.2 5.2 0 0 1-3.7 1.6zm125.7 6.4a5 5 0 0 1-2.6-.8l-43.7-26.1a5.1 5.1 0 1 1 5.2-8.8l43.7 26.2a5.2 5.2 0 0 1 1.8 7 5.2 5.2 0 0 1-4.4 2.5zm0 34.4H762.6a5.1 5.1 0 0 1 0-10.2h163.3a5.1 5.1 0 1 1 0 10.2z"/><path d="M885.1 252.5h-41a5.2 5.2 0 0 1-4.6-2.8 5.1 5.1 0 0 1 .5-5.4 78 78 0 0 0 12.8-43.9 5.2 5.2 0 0 1 8.4-4c3.3 2.7 6.8 5.2 9.5 7.1l4.8 3.5c10 7.9 13.9 34.5 14.6 39.7a5 5 0 0 1-1.2 4.1 5.2 5.2 0 0 1-3.8 1.7zm-32-10.2h26c-2-10.8-5.7-23.9-9.9-27.3l-4.4-3.1-2.2-1.6a90.3 90.3 0 0 1-9.5 32zm65.5-28.6a4.8 4.8 0 0 1-2.6-.7l-8.6-5.2a5.5 5.5 0 0 1-2.1-2.4c-7.7-18.2-16.9-38.7-18.9-41.3s-3.8-7.9.5-23.5a5.1 5.1 0 0 1 2.7-3.2l22.6-11.1a4.8 4.8 0 0 1 4.2-.1 5 5 0 0 1 2.9 3.1l11.4 34.9a3.9 3.9 0 0 1 .2 2.4l-7.2 42.9a5.2 5.2 0 0 1-2.9 3.7 4.2 4.2 0 0 1-2.2.5zm-4.5-13.8l.8.5 5.8-34.3-9.3-28.1-15.2 7.5c-2.2 8.4-2 11.3-1.9 12.1 3.5 4.7 12.5 25 19.8 42.3z"/><path d="M844.1 252.5h-28a5.2 5.2 0 0 1-5.1-5c-.5-23-14.2-37.2-14.4-37.3a5.3 5.3 0 0 1-1.4-4.6 5.1 5.1 0 0 1 3.1-3.7c2.9-1.4 9.1-14.5 13-27.4l1.1-5.2a5.3 5.3 0 0 1 3.3-3.8 87.6 87.6 0 0 1 28.5-4.9 5.1 5.1 0 0 1 4.4 7.8c-3 5.1-5.1 13.6 12.6 28a5.2 5.2 0 0 1 1.9 4.2c.4 29-14.3 49-15 49.9a5.1 5.1 0 0 1-4 2zm-23.2-10.2h20.4a78.4 78.4 0 0 0 11.5-39.6c-12.6-10.8-18-21.4-16.1-31.5a77.4 77.4 0 0 0-14.9 3.1l-.6 2.7c-2.3 7.5-7.3 22.5-13.8 30.1a70.2 70.2 0 0 1 13.5 35.2zm-680.1 19.1a9.4 9.4 0 0 0 9.4-9.4v-47h46.9a46.9 46.9 0 0 0 47-46.9 46.4 46.4 0 0 0-19.7-38.1 44.1 44.1 0 0 0 .9-8.9 46.9 46.9 0 0 0-41.5-46.6 46.8 46.8 0 0 0-86.1 0 46.9 46.9 0 0 0-41.4 46.6 44.1 44.1 0 0 0 .9 8.9 46.2 46.2 0 0 0-19.7 38.1A46.9 46.9 0 0 0 84.4 205h47v47a9.4 9.4 0 0 0 9.4 9.4zm-56.4-75.1a28.1 28.1 0 0 1-12.1-53.5 9.4 9.4 0 0 0 4.7-11.7 28 28 0 0 1 15.8-36.2 27.1 27.1 0 0 1 9.8-1.9h1.6a9.2 9.2 0 0 0 9.4-7 28 28 0 0 1 54.4 0 9.2 9.2 0 0 0 9.4 7c.5 0 1.1 0 .9-.1a27.9 27.9 0 0 1 26.3 38 9.4 9.4 0 0 0 4.7 11.8 28.2 28.2 0 0 1-12.2 53.5h-46.9v-24l33.7-24.8a9.4 9.4 0 1 0-10.7-15.4c-.1.1-.3.2-.4.4L150.2 139v-37.3a9.4 9.4 0 0 0-18.8 0v47l-22.6-16.8a9.4 9.4 0 0 0-11.2 15l33.8 25.1v14.3zm1599.4 75.1a9.4 9.4 0 0 0 9.4-9.4v-47h46.9a46.9 46.9 0 0 0 47-46.9 46.4 46.4 0 0 0-19.7-38.1 44.1 44.1 0 0 0 .9-8.9 46.9 46.9 0 0 0-41.5-46.6 46.8 46.8 0 0 0-86.1 0 46.9 46.9 0 0 0-41.4 46.6 44.1 44.1 0 0 0 .9 8.9 46.2 46.2 0 0 0-19.7 38.1 46.9 46.9 0 0 0 46.9 46.9h47v47a9.4 9.4 0 0 0 9.4 9.4zm-56.4-75.1a28.1 28.1 0 0 1-12.1-53.5 9.4 9.4 0 0 0 4.7-11.7 28 28 0 0 1 15.8-36.2 27.1 27.1 0 0 1 9.8-1.9h1.6a9.2 9.2 0 0 0 9.4-7 28 28 0 0 1 54.4 0 9.2 9.2 0 0 0 9.4 7c.5 0 1.1 0 .9-.1a27.9 27.9 0 0 1 26.3 38 9.4 9.4 0 0 0 4.7 11.8 28.2 28.2 0 0 1-12.2 53.5h-46.9v-24l33.7-24.8a9.4 9.4 0 0 0-10.7-15.5l-.4.4-22.6 16.7v-37.3a9.4 9.4 0 0 0-18.8 0v47l-22.6-16.8a9.4 9.4 0 0 0-11.2 15l33.8 25.1v14.3zM1352 259h32v9h-32zm128 0h32v9h-32z"/></svg>