<svg xmlns="http://www.w3.org/2000/svg" width="600" height="400" viewBox="0 0 600 400"><path fill="#e6fbff" d="M-27.5-7H642v171H-27.5z"/><path fill="#9bcf48" d="M-27.5 154H642v171H-27.5z"/><ellipse cx="301.5" cy="305.5" fill="#d6ba73" rx="267.5" ry="137.5"/><path fill="#0084a6" d="M-44 303h688v152H-44z"/><path fill="#7a7272" d="M296.6 248.5h-.6a.1.1 0 0 1-.1-.1h-.3v-.7l10.2-53.6v-.3l15.3-30.5 15.3-53.5c0-.1 0-.2.1-.2S351.8 83 378.2 83h.2a117.6 117.6 0 0 1 26 6.8c11.4 4.4 26.1 12.6 31 26.5a.9.9 0 0 1 0 .7c-1.7 4.4-3.5 9.2-5 13.9l-3 9.1 20.5-10.1h.9a1.1 1.1 0 0 1 .7.6l11.4 34.9a1.1 1.1 0 0 1 .1.5l-7.1 42.1 6.6 4h.1l.2.2v.2h.1v34.7a1.1 1.1 0 0 1-1.1 1.1z"/><path fill="#59992f" d="M265.3 133.3a9.7 9.7 0 0 1-4.9-12.2 30.8 30.8 0 0 0 2-10.8A29.1 29.1 0 0 0 233 81.4c.1.1-.5.1-1.1.1a9.7 9.7 0 0 1-9.8-7.4 29.2 29.2 0 0 0-56.7 0 9.7 9.7 0 0 1-9.8 7.4l-1.7-.2a31.3 31.3 0 0 0-10.1 2 29.2 29.2 0 0 0-16.6 37.8 9.8 9.8 0 0 1-4.9 12.3 29 29 0 0 0-16.7 26.3 29.4 29.4 0 0 0 29.4 29.4h117.6a29.4 29.4 0 0 0 12.7-55.8z"/><path d="M459.9 252.5h-40.8a5.1 5.1 0 0 1-5.1-4.4c-1.5-11.4-5.8-29.1-10.8-33.1l-4.4-3.1c-12.3-8.8-37.9-27-24.9-48.8 6.4-10.8 23.5-39.6 20.4-45a23.2 23.2 0 0 0-5.2-.6c-10.1 0-22.9 5.9-24.3 13.5-2.6 13.3-9.6 45.7-9.6 46-2.3 7.5-7.3 22.5-13.8 30.1a69.8 69.8 0 0 1 13.8 40.2 5.2 5.2 0 0 1-1.4 3.7 5.6 5.6 0 0 1-3.7 1.5h-53.5a4.9 4.9 0 0 1-3.9-1.9 4.9 4.9 0 0 1-1.1-4.2l10.2-53.5a7.4 7.4 0 0 1 .4-1.4l15.1-30.2 15.2-53.1a3.7 3.7 0 0 1 .5-1.1c.7-1.2 16.5-28.1 45.2-28.1h.7c2 .3 49.8 6.5 60.3 35.9a5 5 0 0 1-.1 3.6c-6.1 15.5-11.8 34.6-10.8 39.1 3.5 4.6 12.5 25 19.8 42.3l14.4 8.7a5 5 0 0 1 2.5 4.4v34.4a5.1 5.1 0 0 1-5.1 5.1zm-36.4-10.2h31.3v-26.5l-13.4-8a5.5 5.5 0 0 1-2.1-2.4c-7.7-18.2-16.9-38.7-18.9-41.3s-7.1-7.1 8.5-47.5c-9.4-21.1-47.2-26.9-51-27.4-20.7.2-33.7 19.2-35.8 22.5L327 164.6l-.3.9-15 30-8.9 46.8h41.9a58.6 58.6 0 0 0-14.1-32.1 5.3 5.3 0 0 1-1.4-4.6 5.1 5.1 0 0 1 3.1-3.7c2.9-1.4 9.1-14.5 13-27.4s6.9-32.3 9.4-45.4 19.9-21.8 34.4-21.8a25.7 25.7 0 0 1 8.7 1.3 10.1 10.1 0 0 1 6.2 6.1c3.7 10.2-7 29.5-21.4 53.7-7.5 12.6 7.5 24.8 22.2 35.2l4.7 3.4c8.3 6.6 12.4 25.8 14 35.3z"/><path d="M334.2 211.7a5.4 5.4 0 0 1-3.5-1.4c0-.1-5.2-4.8-11.8-4.8a5.1 5.1 0 0 1-5.1-5.1 5.1 5.1 0 0 1 5.1-5.1c10.7 0 18.5 7.3 18.9 7.6a5.1 5.1 0 0 1 .1 7.2 5.2 5.2 0 0 1-3.7 1.6zm125.7 6.4a5 5 0 0 1-2.6-.8l-43.7-26.1a5.1 5.1 0 1 1 5.2-8.8l43.7 26.2a5.2 5.2 0 0 1 1.8 7 5.2 5.2 0 0 1-4.4 2.5zm0 34.4H296.6a5.1 5.1 0 0 1 0-10.2h163.3a5.1 5.1 0 1 1 0 10.2z"/><path d="M419.1 252.5h-41a5.2 5.2 0 0 1-4.6-2.8 5.1 5.1 0 0 1 .5-5.4 78 78 0 0 0 12.8-43.9 5.2 5.2 0 0 1 8.4-4c3.3 2.7 6.8 5.2 9.5 7.1l4.8 3.5c10 7.9 13.9 34.5 14.6 39.7a5 5 0 0 1-1.2 4.1 5.2 5.2 0 0 1-3.8 1.7zm-32-10.2h26c-2-10.8-5.7-23.9-9.9-27.3l-4.4-3.1-2.2-1.6a90.3 90.3 0 0 1-9.5 32zm65.5-28.6a4.8 4.8 0 0 1-2.6-.7l-8.6-5.2a5.5 5.5 0 0 1-2.1-2.4c-7.7-18.2-16.9-38.7-18.9-41.3s-3.8-7.9.5-23.5a5.1 5.1 0 0 1 2.7-3.2l22.6-11.1a4.8 4.8 0 0 1 4.2-.1 5 5 0 0 1 2.9 3.1l11.4 34.9a3.9 3.9 0 0 1 .2 2.4l-7.2 42.9a5.2 5.2 0 0 1-2.9 3.7 4.2 4.2 0 0 1-2.2.5zm-4.5-13.8l.8.5 5.8-34.3-9.3-28.1-15.2 7.5c-2.2 8.4-2 11.3-1.9 12.1 3.5 4.7 12.5 25 19.8 42.3z"/><path d="M378.1 252.5h-28a5.2 5.2 0 0 1-5.1-5c-.5-23-14.2-37.2-14.4-37.3a5.3 5.3 0 0 1-1.4-4.6 5.1 5.1 0 0 1 3.1-3.7c2.9-1.4 9.1-14.5 13-27.4l1.1-5.2a5.3 5.3 0 0 1 3.3-3.8 87.6 87.6 0 0 1 28.5-4.9 5.1 5.1 0 0 1 4.4 7.8c-3 5.1-5.1 13.6 12.6 28a5.2 5.2 0 0 1 1.9 4.2c.4 29-14.3 49-15 49.9a5.1 5.1 0 0 1-4 2zm-23.2-10.2h20.4a78.4 78.4 0 0 0 11.5-39.6c-12.6-10.8-18-21.4-16.1-31.5a77.4 77.4 0 0 0-14.9 3.1l-.6 2.7c-2.3 7.5-7.3 22.5-13.8 30.1a70.2 70.2 0 0 1 13.5 35.2zm-161.1 19.1a9.4 9.4 0 0 0 9.4-9.4v-47h46.9a46.9 46.9 0 0 0 47-46.9 46.4 46.4 0 0 0-19.7-38.1 44.1 44.1 0 0 0 .9-8.9 46.9 46.9 0 0 0-41.5-46.6 46.8 46.8 0 0 0-86.1 0 46.9 46.9 0 0 0-41.4 46.6 44.1 44.1 0 0 0 .9 8.9 46.2 46.2 0 0 0-19.7 38.1 46.9 46.9 0 0 0 46.9 46.9h47v47a9.4 9.4 0 0 0 9.4 9.4zm-56.4-75.1a28.1 28.1 0 0 1-12.1-53.5 9.4 9.4 0 0 0 4.7-11.7 28 28 0 0 1 15.8-36.2 27.1 27.1 0 0 1 9.8-1.9h1.6a9.2 9.2 0 0 0 9.4-7 28 28 0 0 1 54.4 0 9.2 9.2 0 0 0 9.4 7c.5 0 1.1 0 .9-.1a27.9 27.9 0 0 1 26.3 38 9.4 9.4 0 0 0 4.7 11.8 28.2 28.2 0 0 1-12.2 53.5h-46.9v-24l33.7-24.8a9.4 9.4 0 1 0-10.7-15.4c-.1.1-.3.2-.4.4L203.2 139v-37.3a9.4 9.4 0 0 0-18.8 0v47l-22.6-16.8a9.4 9.4 0 0 0-11.2 15l33.8 25.1v14.3z"/></svg>