<svg xmlns="http://www.w3.org/2000/svg" width="600" height="400" viewBox="0 0 600 400"><path fill="#e6fbff" d="M-16-7h689.9v171H-16z"/><path fill="#9bcf48" d="M-16 154h689.9v171H-16z"/><path fill="#0084a6" d="M-33 303h709v152H-33z"/><path d="M45.4 88.8A76.8 76.8 0 0 0-9.3 66.2a76.7 76.7 0 0 0-54.6 22.6 76.8 76.8 0 0 0-22.6 54.7 77.1 77.1 0 0 0 19.2 50.9 76.9 76.9 0 0 0 46.7 25.5V280a9.7 9.7 0 0 0 9.7 9.7 10 10 0 0 0 6.9-2.8 10 10 0 0 0 2.8-6.9v-59.7a77.2 77.2 0 0 0 49.1-24.8A77.1 77.1 0 0 0 68 143.4a76.7 76.7 0 0 0-22.6-54.6zM31.3 198.3a68.2 68.2 0 0 1-20.9 10.4A65.1 65.1 0 0 1-1.1 211v-62.9a9.7 9.7 0 0 0-9.7-9.7 10 10 0 0 0-6.9 2.8 10 10 0 0 0-2.8 6.9v62.5a68.3 68.3 0 0 1-56.7-67.1 68.2 68.2 0 0 1 68-68.1 68.1 68.1 0 0 1 68.1 68.1 68.3 68.3 0 0 1-27.6 54.8z"/><path d="M21.9 164.6l-23.2 30.3v-21.7l12.7-16.6a6.6 6.6 0 0 1 9.2-1.3 6.8 6.8 0 0 1 1.3 9.3z"/><path fill="#59823c" d="M155.1 237.6a103.2 103.2 0 0 1-20.1-2.4 104.5 104.5 0 0 0-12-1c-13-.6-27.7-1.3-33.5-8.8-11.2-14.8-5.6-24.3-1.5-31.3 2-3.4 3.7-6.2 3.7-9.3s-.2-3.8-.4-5.9c-.6-7.3-1.3-16.4 4.1-22.4 3.3-3.5 8.4-5.4 15.1-5.4 1.7 0 3.5.2 5.5.4h1c2 0 2.5-.4 3.9-4.8s3.8-12.1 14.7-12.1h2.9l4.6.4c10.7.9 20.9 1.8 27.5 14.8 1.1 2.1 3.4 4.7 5.9 7.5 5 5.6 11.3 12.5 12.3 20.9s-3.5 15.4-6.9 19.5-3.8 4.9-3.3 6.9c2.6 11.4 1.8 19.6-2.6 25.1s-11 7.9-20.9 7.9z"/><circle cx="-9" cy="144" r="72" fill="#378242"/><path fill="#59992f" d="M617.3 133.3a9.7 9.7 0 0 1-4.9-12.2 30.8 30.8 0 0 0 2-10.8A29.1 29.1 0 0 0 585 81.4c.1.1-.5.1-1.1.1a9.7 9.7 0 0 1-9.8-7.4 29.2 29.2 0 0 0-56.7 0 9.7 9.7 0 0 1-9.8 7.4l-1.7-.2a31.3 31.3 0 0 0-10.1 2 29.2 29.2 0 0 0-16.6 37.8 9.8 9.8 0 0 1-4.9 12.3 29 29 0 0 0-16.7 26.3 29.4 29.4 0 0 0 29.4 29.4h117.6a29.4 29.4 0 0 0 12.7-55.8z"/><path fill="#632200" d="M344.9 264l-3-80.9-6.6 3-.4-1 7.3-2.8-1.1-49.6h-92.7l-1 49.4 7.3 3.3-.5 1.2-6.6-3-2.2 80.4h-27.9l5.6-79.7-7.1 2.6-.5-1.4 7.9-3.1 3.7-49.7h-38.6v-18.5h-4.6V113h45l.9-17.2h-9V77.3H212l-9.2-13.8h-14l-12.6-16.7-1.6-.3-8.5-1.4h-.3l-4.9-19.8h.5c4.6 1 62.1 10.2 136.6 10.2 46.1 0 90-3.4 130.6-10.2h1.1l-4.9 19.9h-.2l-8.7 1.4-1.6.3-12.7 16.6h-14l-9.2 13.8h-8.8v18.5H360l1.7 17.2h44.8v1.2h-4.6v18.5h-38.5l3.2 49.2 7.9 3.2-.5 1.3-7.1-2.6 6 80.2zm-35.2-151h31V95.8h-9.2V77.3h-21.8zm-60.4 0h31.5V77.3h-22.3v18.5h-9.2z"/><path d="M165.2 49.1l8.7 1.3 12.9 17.1h13.9l9.2 13.8h6.9v18.5h8.8l-.5 9.2h-45.2v9.2h4.6v18.5h38.3l-3.2 42.9-9.2 3.7 3.2 8.7 5.1-1.8-5.5 77.8h9.2l6-82 6.9-2.7 6.9 2.7-2.1 82h9.2l2.1-78.3 5.1 2.3 3.2-8.7-8.3-3.7.9-42.9h84.9l.9 42.9-8.3 3.2 3.2 8.8 5.1-2.3 3 78.7h9.3l-2.1-82 6.9-2.7 6.9 2.7 5.9 82h9.2l-5.9-78.3 5.1 1.9 3.2-8.8-9.2-3.7-2.8-42.4h38.3v-18.5h4.6V109h-45.2l-.9-9.2h9.2V81.3h6.9l9.3-13.8h13.8l12.9-17.1 8.8-1.3 2.7-.5 7-28.1-7 .9c-135.5 22.6-264.2.4-265.6 0l-6.9-1.4 6.9 28.1zm58.5 78.4h-29.9v-9.3h30.4zm173-9.3v9.3h-30l-.9-9.3zM244.5 90.6l-2.3 85.3-6.9-2.8-6 2.3 6.4-84.8H226v-9.3h27.7v9.3zm18 9.2V81.3h14.3V109h-23.5v-9.2zm74.7 27.7h-84.4l.5-9.3h83.9zM286 109V81.3h18.4V109zm50.7-9.2v9.2h-23V81.3h13.8v18.5zm27.7-9.2h-9.7l6.5 84.8-6-2.3-7.4 2.8-1.8-85.3h-9.3v-9.3h27.7zm34.1-32.3h-13.8l-9.2 13.8h-161l-9.2-13.8h-13.8l-4.7-6a872.9 872.9 0 0 0 109.3 6.9 829.9 829.9 0 0 0 107-6.9zm24-26.8l-2.3 8.8-9.2 1.4a819.6 819.6 0 0 1-232 0 80.7 80.7 0 0 1-9.2-1.4l-2.3-8.8c28.1 4.2 138.3 18.5 255 0zM45.4 88.8A76.8 76.8 0 0 0-9.3 66.2a76.7 76.7 0 0 0-54.6 22.6 76.8 76.8 0 0 0-22.6 54.7 77.1 77.1 0 0 0 19.2 50.9 76.9 76.9 0 0 0 46.7 25.5V280a9.7 9.7 0 0 0 9.7 9.7 10 10 0 0 0 6.9-2.8 10 10 0 0 0 2.8-6.9v-59.7a77.2 77.2 0 0 0 49.1-24.8A77.1 77.1 0 0 0 68 143.4a76.7 76.7 0 0 0-22.6-54.6zM31.3 198.3a68.2 68.2 0 0 1-20.9 10.4A65.1 65.1 0 0 1-1.1 211v-62.9a9.7 9.7 0 0 0-9.7-9.7 10 10 0 0 0-6.9 2.8 10 10 0 0 0-2.8 6.9v62.5a68.3 68.3 0 0 1-56.7-67.1 68.2 68.2 0 0 1 68-68.1 68.1 68.1 0 0 1 68.1 68.1 68.3 68.3 0 0 1-27.6 54.8z"/><path d="M21.9 164.6l-23.2 30.3v-21.7l12.7-16.6a6.6 6.6 0 0 1 9.2-1.3 6.8 6.8 0 0 1 1.3 9.3zm134.6 76.9a112.9 112.9 0 0 1-21.6-2.6 115.5 115.5 0 0 0-12.9-1.1c-14-.6-29.8-1.4-36-9.5-12.1-15.8-6-26.1-1.6-33.6 2.1-3.6 3.9-6.7 3.9-10s-.2-4.1-.3-6.4c-.7-7.8-1.5-17.6 4.4-24 3.5-3.8 9-5.8 16.2-5.8a42.7 42.7 0 0 1 5.9.4h1.1c2.1 0 2.6-.3 4.1-5.1s4.2-13 15.9-13a16.2 16.2 0 0 1 3 .2l5 .4c11.6 1 22.5 1.9 29.6 15.9 1.2 2.2 3.7 5 6.4 8 5.4 6 12.1 13.5 13.2 22.5s-3.8 16.5-7.4 21-4.1 5.3-3.6 7.4c2.8 12.2 1.9 21.1-2.8 27s-11.8 8.3-22.5 8.3zm-47.9-84.6c-4.8 0-8.1 1.1-10 3.1-3.4 3.7-2.8 11.1-2.2 17.6.2 2.6.4 4.9.4 7.1 0 5.6-2.6 10-5.2 14.3-4.2 7.2-7.5 12.9 1.1 24.2 3.8 5 19.4 5.7 29.7 6.2 5.7.3 10.6.5 14.2 1.3 19.5 3.9 31.3 3 35.8-2.7 3-3.8 3.4-10.5 1.2-19.9-1.5-6.4 2.1-10.8 5.2-14.7s6.5-7.8 5.6-14.5-6.3-12.6-11.1-18c-3.1-3.4-6-6.6-7.6-9.8-5-9.8-11.7-10.4-22.8-11.3l-5.1-.5c-7-.7-8.2 1.3-10 7s-3.6 12.2-14.3 10.9z"/><path d="M139.5 287.2h-8.4v-73.7l-13.9-21.9 7.2-4.5 11 17.5 11.9-17.6 7 4.7-14.8 21.9v73.6zm406.3-25.8a9.4 9.4 0 0 0 9.4-9.4v-47h46.9a46.9 46.9 0 0 0 47-46.9 46.4 46.4 0 0 0-19.7-38.1 44.1 44.1 0 0 0 .9-8.9 46.9 46.9 0 0 0-41.5-46.6 46.8 46.8 0 0 0-86.1 0 46.9 46.9 0 0 0-41.4 46.6 44.1 44.1 0 0 0 .9 8.9 46.2 46.2 0 0 0-19.7 38.1 46.9 46.9 0 0 0 46.9 46.9h47v47a9.4 9.4 0 0 0 9.4 9.4zm-56.4-75.1a28.1 28.1 0 0 1-12.1-53.5 9.4 9.4 0 0 0 4.7-11.7 28 28 0 0 1 15.8-36.2 27.1 27.1 0 0 1 9.8-1.9h1.6a9.2 9.2 0 0 0 9.4-7 28 28 0 0 1 54.4 0 9.2 9.2 0 0 0 9.4 7c.5 0 1.1 0 .9-.1a27.9 27.9 0 0 1 26.3 38 9.4 9.4 0 0 0 4.7 11.8 28.2 28.2 0 0 1-12.2 53.5h-46.9v-24l33.7-24.8a9.4 9.4 0 0 0-10.7-15.4c-.1.1-.3.2-.4.4L555.2 139v-37.3a9.4 9.4 0 0 0-18.8 0v47l-22.6-16.8a9.4 9.4 0 1 0-11.2 15l33.8 25.1v14.3zM214 259h32v9h-32zm128 0h32v9h-32z"/></svg>